<svg xmlns="http://www.w3.org/2000/svg" width="756" height="756" viewBox="0 0 756 756">
  <g id="Group_27" data-name="Group 27" transform="translate(-973 -2605)">
    <rect id="Rectangle_13" data-name="Rectangle 13" width="756" height="756" rx="30" transform="translate(973 2605)" fill="#f7f7f7"/>
    <g id="Group_23" data-name="Group 23" transform="translate(681.276 2299.196)">
      <path id="Path_76" data-name="Path 76" d="M420.22,875.593c126.93,94.347,286.9,108.526,422.392,37.439,62.243-32.654,120.872-84.539,155.52-159.7s41.125-175.981,4.809-249.771c-16.558-33.636-40.681-59.883-66.615-81.066-72.063-58.877-158.572-81-243.483-84.5C587.18,333.63,476.406,359.09,392.571,443.38c-27.052,27.2-51.128,60.735-65.461,101.25s-18.1,88.6-5.478,130.071c12.227,40.172,38.782,71.01,68.916,88.727s63.669,23.4,96.7,23.721c63.633.627,127.326-18.119,184.63-54.328" transform="translate(0 56.912)" fill="none" stroke="#000" stroke-linecap="round" stroke-linejoin="round" stroke-width="1"/>
      <g id="Group_22" data-name="Group 22" transform="translate(384.668 325.949)">
        <g id="Group_19" data-name="Group 19" transform="translate(1.122 1.119)">
          <path id="Path_77" data-name="Path 77" d="M657.607,505.411,533.233,380.99l-10.1-10.1-45.372,45.372.929.8c4.076,3.455,13.736,12.849,14.89,26.058.97,10.63-3.768,21.177-14.049,31.459-9.435,9.435-19.143,14.18-28.844,14.18-.887,0-1.775-.047-2.615-.089-13.2-1.2-22.645-10.814-26.052-14.931l-.8-.935-45.952,45.952,46.881,46.881a1.1,1.1,0,0,1,.313.887,1.186,1.186,0,0,1-.491.793c-.13.136-14.623,10.5-15.948,26.058-.887,9.879,3.632,19.894,13.423,29.642,9,8.992,18.166,13.559,27.294,13.559.8,0,1.6-.047,2.4-.089,15.682-1.372,25.922-15.865,26.01-16a.987.987,0,0,1,.8-.444,1.264,1.264,0,0,1,.882.308l32.612,32.571,13.115,13.115,135.016-135.01A18.125,18.125,0,0,0,657.607,505.411Z" transform="translate(-84.504 -106.178)" fill="#fff"/>
          <path id="Path_78" data-name="Path 78" d="M645.115,543.442l-116.27,116.27L510.1,678.452a18.123,18.123,0,0,1-25.608.042L473.547,667.55l-.136-.13-123.4-123.4,13.736-13.736,32.529-32.565a1.1,1.1,0,0,0,.349-.887,1.156,1.156,0,0,0-.485-.8c-.621-.444-14.623-10.5-15.954-26.011-.881-9.926,3.638-19.894,13.428-29.69,8.95-8.992,18.167-13.558,27.294-13.558a20.24,20.24,0,0,1,2.349.136c15.729,1.372,25.922,15.818,26.058,15.948a1.173,1.173,0,0,0,.793.491,1.427,1.427,0,0,0,.887-.314l46.881-46.881L543.823,442.1l-.935.751c-4.117,3.461-13.777,12.854-14.931,26.1-.929,10.589,3.81,21.183,14.091,31.459,9.394,9.394,19.1,14.185,28.755,14.185.887,0,1.774-.048,2.7-.136,13.2-1.153,22.645-10.814,26.058-14.889l.793-.929,31.82,31.855Z" transform="translate(-208.661 18.013)" fill="#8ed8d9"/>
          <path id="Path_79" data-name="Path 79" d="M566.852,471.87a1.163,1.163,0,0,1-.313-.84,1.211,1.211,0,0,1,.485-.846c.58-.4,14.623-10.541,15.954-26.01.887-9.926-3.632-19.894-13.428-29.684-8.992-8.95-18.167-13.517-27.247-13.517-.846,0-1.639.048-2.437.089-15.641,1.372-25.922,15.865-26.01,16a1.144,1.144,0,0,1-1.686.136l-46.3-46.307-9.128,9.216L331.432,506.517a18.043,18.043,0,0,0-5.318,12.807,17.794,17.794,0,0,0,5.271,12.807L465.868,666.609,479.781,652.7l31.459-31.459-.929-.751c-4.076-3.455-13.736-12.848-14.889-26.058-.929-10.63,3.768-21.225,14.043-31.459,9.441-9.435,19.143-14.221,28.85-14.221a25.168,25.168,0,0,1,2.615.13c13.245,1.154,22.639,10.814,26.052,14.931l.8.935,45.946-45.993Z" transform="translate(-326.113 -106.178)" fill="#f9cf00"/>
          <path id="Path_80" data-name="Path 80" d="M616.186,508.472,644.5,487.561,541.7,347.233l-.089-.177-9.968-13.606a17.914,17.914,0,0,0-11.873-7.134,18.865,18.865,0,0,0-2.7-.177,17.853,17.853,0,0,0-10.772,3.549l-8.371,6.2L352.052,443.65l25.656,34.783h.047l12.4,16.836.929-.8c3.727-3.277,13.695-10.944,26.1-10.944.621,0,1.242.048,1.9.048,10.595.663,20.385,6.909,29.027,18.61,8.6,11.7,11.743,22.863,9.216,33.186-3.105,12.9-14.049,20.781-18.61,23.573l-1.023.621L476.3,611.852l53.3-39.391a1.166,1.166,0,0,1,.757-.225.262.262,0,0,1,.178.047,1.078,1.078,0,0,1,.751.574c.089.13,8.11,16,23.355,19.628a26.588,26.588,0,0,0,6.466.8c7.844,0,16.22-3.277,24.857-9.66,11.121-8.24,17.108-17.409,17.723-27.383.935-15.641-11.825-27.957-11.961-28.045a1.348,1.348,0,0,1-.355-.888,1.436,1.436,0,0,1,.444-.84Z" transform="translate(-198.608 -326.138)" fill="#8ed8d9"/>
        </g>
        <g id="Group_21" data-name="Group 21">
          <path id="Path_81" data-name="Path 81" d="M498.587,519.471l-47.076-47.076s35.375-24.7,2.686-57.387S396.81,417.7,396.81,417.7l-47.07-47.076" transform="translate(-208.851 -106.346)" fill="none" stroke="#000" stroke-linecap="round" stroke-linejoin="round" stroke-width="1"/>
          <path id="Path_82" data-name="Path 82" d="M375.1,395.983l47.076,47.076s-35.375,24.7-2.686,57.38,57.381-2.685,57.381-2.685l47.076,47.076" transform="translate(-84.203 18.307)" fill="none" stroke="#000" stroke-linecap="round" stroke-linejoin="round" stroke-width="1"/>
          <path id="Path_83" data-name="Path 83" d="M498.587,395.983l-47.076,47.076s-24.7-35.381-57.387-2.692,2.686,57.387,2.686,57.387l-47.07,47.076" transform="translate(-208.851 18.307)" fill="none" stroke="#000" stroke-linecap="round" stroke-linejoin="round" stroke-width="1"/>
          <path id="Path_84" data-name="Path 84" d="M375.1,519.471l47.076-47.076s24.7,35.381,57.387,2.691-2.691-57.387-2.691-57.387l47.076-47.076" transform="translate(-84.203 -106.346)" fill="none" stroke="#000" stroke-linecap="round" stroke-linejoin="round" stroke-width="1"/>
          <path id="Path_85" data-name="Path 85" d="M765.665,370.624,900.953,505.912a19.218,19.218,0,0,1-.053,27.176L629.271,804.712a19.218,19.218,0,0,1-27.176.053l-270.57-270.57a19.218,19.218,0,0,1,.053-27.176L466.812,370.624" transform="translate(-325.923 -106.346)" fill="none" stroke="#000" stroke-linecap="round" stroke-linejoin="round" stroke-width="1"/>
          <g id="Group_20" data-name="Group 20" transform="translate(153.01)">
            <path id="Path_86" data-name="Path 86" d="M476.879,613.658l-39.557-53.541s38.652-19.172,11.18-56.351-57.15-5.862-57.15-5.862l-39.563-53.541L506.924,329.73a19.222,19.222,0,0,1,26.886,3.981L647.329,488.74,593.787,528.3s31.317,29.678-5.862,57.15-56.351-11.186-56.351-11.186l-53.541,39.563" transform="translate(-351.789 -325.949)" fill="none" stroke="#000" stroke-linecap="round" stroke-linejoin="round" stroke-width="1"/>
          </g>
          <path id="Path_87" data-name="Path 87" d="M334.82,430.716a370.336,370.336,0,0,1,46.786-46.5" transform="translate(-282.19 -39.515)" fill="none" stroke="#000" stroke-linecap="round" stroke-linejoin="round" stroke-width="0.5"/>
          <path id="Path_88" data-name="Path 88" d="M340.917,403.726l13.6-13.6" transform="translate(-252.22 -10.484)" fill="none" stroke="#000" stroke-linecap="round" stroke-linejoin="round" stroke-width="0.5"/>
          <path id="Path_89" data-name="Path 89" d="M343.035,403.677l8.69-7.832" transform="translate(-241.809 17.628)" fill="none" stroke="#000" stroke-linecap="round" stroke-linejoin="round" stroke-width="0.5"/>
          <path id="Path_90" data-name="Path 90" d="M344.53,406.3q1.943-2.911,3.886-5.827" transform="translate(-234.461 40.377)" fill="none" stroke="#000" stroke-linecap="round" stroke-linejoin="round" stroke-width="0.5"/>
          <path id="Path_91" data-name="Path 91" d="M380.339,491.65q36.425-33.479,69.9-69.992" transform="translate(-58.44 144.508)" fill="none" stroke="#000" stroke-linecap="round" stroke-linejoin="round" stroke-width="0.5"/>
          <path id="Path_92" data-name="Path 92" d="M380.5,436.907l12.63-13.606" transform="translate(-57.659 152.589)" fill="none" stroke="#000" stroke-linecap="round" stroke-linejoin="round" stroke-width="0.5"/>
          <path id="Path_93" data-name="Path 93" d="M371.465,427.641q1.455-3.407,2.916-6.8" transform="translate(-102.061 140.482)" fill="none" stroke="#000" stroke-linecap="round" stroke-linejoin="round" stroke-width="0.5"/>
          <path id="Path_94" data-name="Path 94" d="M368.347,429.053a21.871,21.871,0,0,1,6.779-11.665" transform="translate(-117.388 123.524)" fill="none" stroke="#000" stroke-linecap="round" stroke-linejoin="round" stroke-width="0.5"/>
          <path id="Path_95" data-name="Path 95" d="M406.9,467.961a724.241,724.241,0,0,0,63.7-72.376" transform="translate(72.101 16.345)" fill="none" stroke="#000" stroke-linecap="round" stroke-linejoin="round" stroke-width="0.5"/>
          <path id="Path_96" data-name="Path 96" d="M410.374,412.262q7.223-9.272,14.452-18.551" transform="translate(89.197 7.139)" fill="none" stroke="#000" stroke-linecap="round" stroke-linejoin="round" stroke-width="0.5"/>
          <path id="Path_97" data-name="Path 97" d="M406.45,401.636a27.546,27.546,0,0,1,6.773-11.677" transform="translate(69.909 -11.304)" fill="none" stroke="#000" stroke-linecap="round" stroke-linejoin="round" stroke-width="0.5"/>
          <path id="Path_98" data-name="Path 98" d="M364.9,372.637q29.238-20.293,60.256-37.847" transform="translate(-134.336 -282.49)" fill="none" stroke="#000" stroke-linecap="round" stroke-linejoin="round" stroke-width="0.5"/>
          <path id="Path_99" data-name="Path 99" d="M374.908,345.072q5.324-2.937,10.654-5.88" transform="translate(-85.137 -260.851)" fill="none" stroke="#000" stroke-linecap="round" stroke-linejoin="round" stroke-width="0.5"/>
          <path id="Path_100" data-name="Path 100" d="M377.706,348.5l5.827-4.857" transform="translate(-71.383 -238.953)" fill="none" stroke="#000" stroke-linecap="round" stroke-linejoin="round" stroke-width="0.5"/>
          <path id="Path_101" data-name="Path 101" d="M388.4,372.461q11.18-9.219,22.36-18.445" transform="translate(-18.831 -187.983)" fill="none" stroke="#000" stroke-linecap="round" stroke-linejoin="round" stroke-width="0.5"/>
          <path id="Path_102" data-name="Path 102" d="M387.9,364.241q7.338-6.743,14.67-13.5" transform="translate(-21.259 -204.077)" fill="none" stroke="#000" stroke-linecap="round" stroke-linejoin="round" stroke-width="0.5"/>
          <path id="Path_103" data-name="Path 103" d="M385.754,351.779q1.943-2.919,3.886-5.833" transform="translate(-31.823 -227.652)" fill="none" stroke="#000" stroke-linecap="round" stroke-linejoin="round" stroke-width="0.5"/>
        </g>
      </g>
    </g>
  </g>
</svg>
